 <svg version="1.0" xmlns="http://www.w3.org/2000/svg" width="700.000000pt" height="700.000000pt" viewBox="0 0 700.000000 700.000000" preserveAspectRatio="xMidYMid meet">
<metadata>
(c) Tushar Mohan. Please do NOT imitate and/or use this without written consent from Tushar Mohan.
</metadata>
<g transform="translate(0.000000,700.000000) scale(0.100000,-0.100000)" fill="#000000" stroke="none">
<path d="M3560 6829 c-193 -49 -453 -141 -510 -179 -14 -10 -59 -34 -100 -54
-41 -21 -82 -44 -91 -52 -27 -25 -37 -15 -44 41 -4 30 -12 58 -18 62 -18 11
-222 -207 -310 -334 -90 -128 -108 -157 -131 -219 -7 -22 -28 -75 -46 -119
-32 -79 -51 -140 -91 -285 -13 -48 -24 -128 -29 -220 -9 -151 2 -447 18 -477
5 -10 12 -38 16 -63 4 -25 16 -76 27 -115 11 -38 25 -88 31 -110 6 -22 15 -44
20 -49 4 -6 8 -17 8 -26 0 -9 11 -39 25 -66 14 -27 25 -60 25 -73 0 -14 4 -38
9 -55 17 -56 42 -180 56 -281 12 -90 37 -184 67 -255 6 -14 15 -35 19 -47 5
-13 13 -33 18 -45 14 -35 41 -129 41 -141 0 -11 89 -201 111 -237 23 -39 49
-95 49 -107 0 -7 -39 -32 -87 -55 -49 -23 -97 -49 -108 -58 -11 -10 -47 -32
-80 -50 -33 -17 -67 -38 -75 -45 -8 -7 -45 -29 -82 -49 -72 -38 -262 -187
-274 -214 -3 -9 -9 -59 -13 -111 l-6 -95 -60 -41 c-33 -22 -80 -52 -105 -67
-25 -14 -86 -55 -135 -90 -50 -35 -103 -70 -120 -78 -16 -8 -65 -39 -107 -69
-70 -49 -78 -58 -78 -87 0 -18 -4 -43 -9 -56 -5 -13 -17 -52 -27 -88 -9 -36
-21 -69 -26 -75 -4 -5 -8 -19 -8 -31 0 -13 -4 -25 -9 -28 -4 -3 -11 -32 -14
-66 -4 -33 -11 -68 -17 -77 -9 -16 -23 -64 -52 -178 -5 -22 -14 -49 -18 -60
-5 -11 -13 -36 -19 -55 -6 -19 -21 -71 -35 -115 -13 -44 -30 -105 -36 -135
-16 -71 -39 -150 -51 -172 -5 -10 -9 -26 -9 -36 0 -10 -11 -51 -25 -90 -14
-39 -25 -80 -25 -91 0 -11 -5 -23 -10 -26 -6 -3 -10 -17 -10 -30 0 -13 -4 -27
-10 -30 -5 -3 -10 -17 -10 -31 0 -14 -4 -33 -9 -42 -4 -9 -11 -34 -15 -54 -6
-34 -5 -38 14 -38 12 0 54 -11 93 -24 76 -25 94 -30 247 -71 52 -14 111 -30
130 -35 49 -15 127 -31 175 -36 22 -3 49 -9 60 -14 11 -5 38 -11 60 -14 84
-10 263 -48 360 -76 17 -4 53 -11 80 -14 28 -4 95 -15 150 -26 55 -10 145 -24
200 -31 55 -6 138 -17 185 -25 47 -7 106 -14 133 -16 l47 -3 3 675 c1 433 6
676 12 679 5 2 19 -14 30 -36 11 -21 28 -50 38 -63 16 -23 17 -67 17 -649 -1
-343 1 -625 4 -628 8 -8 261 -20 269 -13 5 4 2 27 -6 51 -8 24 -15 82 -16 128
-1 46 -7 93 -12 103 -5 10 -8 22 -5 26 2 4 -2 43 -10 87 -13 71 -36 220 -65
430 -5 39 -12 77 -15 85 -3 8 -10 60 -16 115 -17 168 -26 247 -38 310 -6 33
-15 96 -20 140 -9 84 -29 206 -55 340 -9 44 -24 127 -35 185 -10 58 -26 141
-35 185 -8 44 -20 103 -25 130 -6 28 -14 70 -19 95 -14 67 1 72 57 18 45 -44
203 -138 233 -138 8 0 26 -6 40 -14 60 -31 134 -41 304 -40 169 1 171 1 273
37 56 20 115 44 130 55 15 10 42 25 61 32 18 7 66 46 105 87 40 40 75 73 79
73 7 0 -1 -67 -13 -95 -9 -23 -46 -261 -60 -385 -10 -87 -35 -238 -51 -300 -4
-19 -13 -73 -19 -120 -6 -47 -19 -128 -29 -180 -11 -52 -17 -98 -15 -102 3 -5
2 -14 -3 -21 -8 -11 -20 -96 -43 -287 -5 -47 -14 -114 -20 -150 -5 -36 -14
-101 -19 -145 -5 -44 -16 -114 -25 -155 -17 -83 -29 -164 -51 -345 -8 -66 -20
-144 -26 -173 -6 -30 -8 -56 -5 -60 9 -9 205 -2 233 9 l23 9 0 586 0 586 32
69 c17 38 35 69 40 69 4 0 8 -292 8 -649 0 -425 3 -652 10 -656 6 -3 25 -2 43
4 17 5 73 15 122 21 271 34 392 51 483 70 55 11 114 20 130 20 17 0 34 4 37
10 3 5 17 10 30 10 13 0 61 10 107 21 46 12 103 24 128 26 25 3 49 9 54 14 6
5 31 9 56 9 25 0 50 4 56 9 5 5 29 11 54 14 75 9 191 35 271 61 43 13 98 28
123 31 25 4 49 11 52 16 3 5 14 9 24 9 11 0 53 11 94 25 41 14 81 25 90 25 24
0 27 16 12 57 -29 78 -66 205 -66 228 0 13 -4 27 -10 30 -5 3 -10 19 -10 36 0
16 -4 37 -9 47 -5 9 -17 44 -26 77 -9 33 -20 71 -25 85 -4 14 -13 45 -20 70
-7 25 -16 55 -20 66 -5 12 -16 52 -25 90 -10 38 -21 74 -25 79 -4 6 -10 31
-14 56 -4 26 -16 71 -26 100 -11 30 -20 62 -20 71 0 10 -4 26 -9 36 -5 9 -17
44 -26 77 -25 88 -55 187 -65 210 -5 11 -16 56 -25 100 -18 86 -40 145 -56
145 -5 0 -45 25 -89 55 -44 30 -83 55 -86 55 -6 0 -70 44 -143 98 -24 18 -70
47 -100 63 -31 17 -78 46 -105 65 l-49 35 -2 72 c-2 89 -11 123 -42 165 -28
38 -201 170 -255 195 -21 10 -67 38 -104 62 -37 25 -69 45 -71 45 -3 0 -17 9
-32 20 -15 10 -57 34 -92 53 -35 18 -74 40 -86 47 -17 11 -25 12 -34 3 -6 -6
-8 -16 -5 -22 4 -5 64 -42 134 -81 255 -144 389 -231 473 -307 64 -59 79 -98
79 -202 0 -33 5 -63 10 -66 19 -12 10 -25 -42 -60 -38 -24 -65 -54 -93 -100
-28 -46 -55 -76 -89 -97 -30 -20 -62 -53 -84 -87 -19 -31 -62 -85 -95 -121
-33 -36 -72 -92 -88 -126 -16 -34 -47 -83 -69 -109 -22 -26 -50 -66 -61 -88
-12 -23 -36 -58 -55 -77 -18 -20 -45 -64 -59 -99 -29 -69 -65 -131 -96 -162
l-21 -21 -16 34 c-31 61 -69 47 -112 -41 -14 -28 -28 -51 -32 -51 -12 0 -10
28 13 156 11 66 25 146 29 179 5 33 14 87 20 120 33 178 42 236 66 405 14 102
30 212 35 245 6 33 14 89 18 125 5 36 16 99 25 140 10 41 19 116 21 167 2 51
9 101 15 113 13 25 9 120 -5 120 -5 0 -11 -23 -13 -52 -2 -38 -10 -60 -26 -78
-13 -14 -33 -43 -46 -65 -81 -137 -209 -260 -330 -317 -47 -23 -93 -45 -102
-49 -10 -5 -64 -14 -120 -20 -106 -12 -302 2 -322 22 -6 5 -17 9 -25 9 -14 0
-67 25 -172 82 -37 19 -209 200 -209 219 0 9 -8 24 -19 33 -19 17 -28 55 -40
161 -3 33 -10 59 -16 58 -17 -4 -17 -97 0 -164 9 -35 18 -104 20 -154 1 -49 8
-116 14 -149 6 -32 8 -69 5 -81 -5 -22 6 -89 61 -370 13 -66 35 -183 49 -260
15 -77 31 -162 36 -190 5 -27 14 -93 20 -145 6 -52 15 -122 21 -155 6 -33 14
-91 19 -130 4 -38 11 -90 15 -115 l8 -45 -26 23 c-22 21 -26 35 -32 115 -6 76
-12 102 -37 147 -17 30 -37 63 -46 73 -20 23 -58 22 -75 -3 -14 -20 -14 -20
-41 1 -15 11 -35 38 -46 59 -11 21 -42 64 -69 95 -34 39 -57 77 -71 120 -11
34 -37 85 -58 112 -48 64 -210 258 -285 340 -31 34 -75 89 -95 122 -36 55
-126 168 -146 183 -13 9 -7 167 9 204 15 37 149 147 248 205 34 20 103 62 152
93 50 31 122 72 160 92 39 19 82 46 96 60 l26 25 16 -24 c9 -14 33 -35 54 -48
21 -13 45 -32 53 -44 40 -56 172 -144 290 -194 30 -13 69 -29 85 -36 72 -32
196 -48 333 -42 73 4 149 11 168 17 19 5 51 15 72 21 41 12 96 34 126 51 11 6
40 22 65 35 100 55 321 248 321 280 0 7 22 43 49 80 27 38 62 100 77 138 15
39 30 75 34 80 4 6 10 24 14 40 4 17 21 60 37 97 16 36 29 76 29 88 0 12 11
43 24 69 14 25 32 73 41 106 10 33 24 80 32 105 18 56 34 174 39 305 3 55 9
109 14 120 11 25 54 148 68 195 6 19 16 62 22 95 5 33 15 80 21 105 57 245 57
551 -1 755 -6 22 -16 65 -21 95 -5 30 -16 69 -24 87 -13 27 -26 73 -74 258 -5
17 -22 73 -39 125 -17 52 -41 129 -53 170 -21 75 -53 155 -71 176 -9 12 -41 5
-95 -19 -41 -18 -49 -5 -57 88 -3 48 -9 92 -12 97 -17 27 -453 -32 -692 -94
-23 -6 -44 -9 -46 -7 -2 2 1 36 7 76 9 69 6 104 -10 102 -4 0 -42 -9 -83 -20z
m-680 -1289 c52 -11 172 -33 265 -50 94 -17 186 -35 205 -40 149 -39 205 -36
453 20 23 5 96 19 162 31 66 11 163 29 215 40 53 10 103 19 112 19 11 0 27
-36 58 -132 23 -73 52 -164 65 -203 12 -38 26 -82 29 -97 3 -15 42 -65 85
-111 l78 -83 6 -79 c3 -44 2 -84 -3 -88 -4 -5 -82 -4 -171 2 -90 7 -184 13
-209 14 l-45 2 39 19 c36 17 85 62 86 78 1 40 -231 54 -325 20 -45 -16 -51
-22 -69 -69 l-20 -51 -60 -6 c-50 -5 -68 -13 -105 -44 -67 -55 -90 -62 -206
-62 l-103 0 -66 44 c-76 51 -114 66 -167 66 -35 0 -39 3 -39 25 0 77 -75 115
-228 115 -111 0 -172 -14 -172 -39 0 -21 50 -71 71 -71 9 0 22 -6 28 -13 9
-12 -14 -15 -137 -21 -81 -3 -175 -9 -209 -13 l-63 -6 0 34 c0 110 9 131 90
228 l78 93 50 156 c28 86 56 182 62 212 21 91 18 90 160 60z m361 -861 c44
-17 69 -76 69 -162 0 -80 -7 -104 -52 -176 -28 -45 -76 -74 -163 -100 -42 -13
-264 -10 -320 3 -45 11 -129 52 -143 69 -23 27 -69 171 -76 235 -6 61 -5 64
28 100 l34 37 124 6 c159 8 466 1 499 -12z m1113 11 c77 0 79 -1 112 -36 37
-39 41 -63 23 -141 -44 -191 -51 -206 -107 -230 -20 -8 -45 -19 -54 -24 -10
-5 -27 -9 -37 -9 -11 0 -23 -4 -26 -10 -9 -15 -271 -13 -314 2 -87 30 -136 64
-166 113 -29 46 -30 53 -30 161 0 111 1 114 28 141 25 26 35 28 135 35 59 3
163 4 232 2 69 -2 160 -4 204 -4z m-1874 -157 c40 -196 94 -284 200 -324 123
-48 395 -45 501 4 64 30 137 98 163 153 10 21 23 47 27 56 5 10 9 26 9 37 0
11 12 33 26 50 25 31 27 31 119 31 90 0 94 -1 123 -30 17 -16 33 -45 37 -62
22 -108 101 -200 209 -243 64 -25 80 -27 220 -28 214 -1 289 19 359 96 38 43
89 158 101 232 10 56 25 93 43 99 14 6 15 -3 11 -57 -3 -35 -10 -72 -16 -83
-6 -10 -15 -48 -21 -84 -17 -113 -41 -233 -56 -278 -8 -23 -15 -47 -15 -52 0
-33 -79 -126 -167 -196 -99 -80 -159 -136 -201 -187 -28 -34 -37 -29 -46 23
-5 33 -15 46 -54 75 -26 19 -62 37 -80 41 -18 3 -35 10 -38 15 -3 5 -18 9 -34
9 -16 0 -32 5 -35 10 -8 14 -167 13 -202 -1 -15 -6 -39 -17 -52 -23 -13 -6
-45 -11 -71 -11 -42 0 -64 6 -122 36 -24 12 -185 11 -193 -1 -3 -5 -15 -10
-26 -10 -80 0 -200 -76 -220 -138 -6 -20 -15 -40 -18 -45 -8 -8 -58 41 -75 74
-6 12 -20 27 -31 33 -57 32 -219 179 -254 231 -40 58 -53 99 -81 260 -5 28
-13 68 -19 90 -5 22 -15 62 -21 89 -5 27 -21 68 -35 92 -36 61 -33 104 6 84
11 -6 22 -31 29 -67z m1364 -882 c11 -17 -43 -52 -100 -63 -75 -16 -349 -16
-434 0 -39 7 -70 18 -77 28 -32 44 -29 44 296 44 171 0 312 -4 315 -9z m-314
-116 c74 0 161 4 193 8 87 13 72 -25 -33 -79 -50 -26 -64 -29 -160 -29 -99 0
-109 2 -172 33 -98 49 -106 88 -15 75 29 -5 113 -8 187 -8z m-2044 -1332 c43
-27 76 -108 85 -203 5 -50 21 -121 39 -172 16 -49 30 -99 30 -112 0 -13 11
-67 25 -120 14 -52 28 -121 31 -153 3 -32 16 -116 29 -188 13 -71 28 -193 35
-270 7 -77 21 -189 31 -250 21 -119 24 -220 9 -259 -11 -29 -10 -29 -209 11
-124 25 -541 137 -573 154 -10 5 -18 14 -18 18 0 5 18 71 41 147 23 77 49 166
59 199 9 33 30 105 45 160 49 177 86 307 125 435 22 69 53 179 70 245 17 66
46 170 65 231 19 62 35 119 35 128 0 20 14 20 46 -1z m4153 -52 c6 -26 46
-167 90 -312 43 -145 82 -280 86 -299 6 -35 15 -65 61 -215 66 -217 95 -320
123 -430 16 -66 37 -140 45 -164 33 -92 40 -88 -269 -171 -191 -52 -265 -69
-350 -84 -160 -27 -153 -27 -167 13 -6 20 -11 63 -11 96 1 59 45 345 63 415 5
19 14 87 20 150 12 128 37 251 75 370 19 61 25 103 25 169 0 62 6 105 20 147
12 32 25 98 30 146 5 47 15 99 23 115 22 40 92 101 119 103 3 0 11 -22 17 -49z
m-1629 -845 c0 -19 -5 -38 -11 -41 -15 -10 -17 -4 -11 38 5 47 22 49 22 3z"></path>
<path d="M2954 4621 c-34 -21 -64 -75 -64 -116 0 -58 59 -135 104 -135 48 0
106 73 106 135 0 37 -40 112 -67 124 -33 15 -43 14 -79 -8z"></path>
<path d="M4052 4626 c-37 -20 -62 -66 -62 -114 0 -53 20 -94 61 -123 30 -21
32 -21 65 -6 88 42 98 173 19 235 -31 25 -50 27 -83 8z"></path>
<path d="M3432 3924 c5 -26 65 -64 103 -64 22 0 40 9 64 34 37 38 28 55 -19
36 -29 -12 -82 -10 -129 5 -19 7 -22 5 -19 -11z m118 -34 c0 -5 -7 -10 -15
-10 -8 0 -15 5 -15 10 0 6 7 10 15 10 8 0 15 -4 15 -10z"></path>
<path d="M4905 4620 c3 -5 8 -10 11 -10 2 0 4 5 4 10 0 6 -5 10 -11 10 -5 0
-7 -4 -4 -10z"></path>
<path d="M2320 3960 c0 -5 5 -10 11 -10 5 0 7 5 4 10 -3 6 -8 10 -11 10 -2 0
-4 -4 -4 -10z"></path>
<path d="M4710 3950 c0 -5 5 -10 10 -10 6 0 10 5 10 10 0 6 -4 10 -10 10 -5 0
-10 -4 -10 -10z"></path>
<path d="M3480 1480 c0 -5 5 -10 10 -10 6 0 10 5 10 10 0 6 -4 10 -10 10 -5 0
-10 -4 -10 -10z"></path>
<path d="M3480 1330 c0 -5 5 -10 10 -10 6 0 10 5 10 10 0 6 -4 10 -10 10 -5 0
-10 -4 -10 -10z"></path>
<path d="M3480 595 c0 -8 5 -15 10 -15 6 0 10 7 10 15 0 8 -4 15 -10 15 -5 0
-10 -7 -10 -15z"></path>
<path d="M3480 470 c0 -5 5 -10 10 -10 6 0 10 5 10 10 0 6 -4 10 -10 10 -5 0
-10 -4 -10 -10z"></path>
</g>
</svg>