<?xml version="1.0" encoding="utf-8"?>
<svg id="master-artboard" viewBox="0 0 1400 980" version="1.1" xmlns="http://www.w3.org/2000/svg" x="0px" y="0px" style="enable-background:new 0 0 1400 980;" width="1400px" height="980px">

<path d="M 0 0 H 1400 V 980 H 0 V 0 Z" class="st0" style="fill: rgb(237, 106, 90);" transform="matrix(1, 0, 0, 1, 0, 0)"/>
<g id="blue_pencil" transform="matrix(1, 0, 0, 1, 0, 0)">
		<path class="st2" d="M610.3,268.9c-0.2-2.2-1-4.5-2.8-5.6l0-0.1l-16.3-3.2l0,0l-19.9-3.9v0h0l0,0l-369-72.8l0,0L168,185&#10;&#9;&#9;&#9;c-0.1,0-0.2,0-0.2,0l-7.8,0c-0.4,0-0.7,0.3-0.8,0.6l-0.2,0.9c-0.1,0.4,0.1,0.8,0.5,0.9l6.7,2.4c0.1,0,0.3,0,0.4,0l32,12.9l0,0&#10;&#9;&#9;&#9;l373.6,73.7l15.3,3.2l0-0.1l16.2,3.3l0,0c0,0,2.5,0.2,4.8-4.1C610,275.9,610.7,272.4,610.3,268.9z" style="opacity: 0.2;"/>
		<g>
			
				<path d="M 180.100006 220.699997 H 569 V 240.599997 H 180.100006 V 220.699997 Z" transform="matrix(-0.9811 -0.1936 0.1936 -0.9811 697.4486 529.4968)" class="st3" style="fill: rgb(115, 133, 167);"/>
			<path class="st4" d="M184.4,192.6l3.6-3.4c0.1-0.1,0.2-0.3,0.2-0.5c0-0.2,0-0.4-0.1-0.6l-2.4-4.8l-40.2,1.9c-0.6,0-1,0.5-1.2,1.2&#10;&#9;&#9;&#9;&#9;c0,0,0,0,0,0.1l0,0c0,0,0,0,0,0c0,0,0,0,0,0l0,0c-0.1,0.5,0.1,1,0.5,1.2l37.1,15l0.7-0.8c0,0,0,0,0,0l3.7-3.9&#10;&#9;&#9;&#9;&#9;c0.1-0.1,0.2-0.3,0.2-0.4c0.1-0.2,0-0.4,0-0.5l-2.3-3.7C184.1,193.2,184.2,192.8,184.4,192.6z" style="fill: rgb(251, 184, 76);"/>
			<path d="M151.1,184.9l-7.8,0c-0.4,0-0.7,0.3-0.8,0.6l-0.2,0.9c-0.1,0.4,0.1,0.8,0.5,0.9l6.7,2.4c0.3,0.1,0.7,0,0.9-0.3&#10;&#9;&#9;&#9;&#9;c1.2-1.7,1.5-2.9,1.5-3.9C151.8,185.2,151.5,184.9,151.1,184.9"/>
			<path d="M 591 263.20001220703125 L 571 259.29998779296875 L 571 259.29998779296875 L 571 259.29998779296875 L 567.2999877929688 278.79998779296875 L 587 282.8999938964844 Z" class="st5" style="fill: rgb(74, 92, 119);"/>
			<path d="M 574.7000122070312 260 L 554.7999877929688 256 L 554.7999877929688 256 L 554.7999877929688 256 L 551.0999755859375 275.6000061035156 L 570.7000122070312 279.70001220703125 Z" class="st4" style="fill: rgb(251, 184, 76);"/>
			<path class="st6" d="M590.8,263.2l-3.9,19.8c0,0,2.5,0.2,4.8-4.1c1.7-3,2.4-6.5,2-9.9C593.5,266.7,592.7,264.2,590.8,263.2" style="fill: rgb(253, 110, 128);"/>
		</g>
	</g><path class="st2" d="M613.3,151.7c0-1.5-1.2-2.7-2.7-2.7l-209.3,0.6c-0.4-1.1-1.3-1.8-2.4-1.8l-53.3,0l0-4.2l42.7,0&#10;&#9;&#9;&#9;c1,0,1.9-0.8,1.9-1.9c0-1-0.9-1.9-1.9-1.9l-62.9,0.1c-1,0-1.9,0.9-1.9,1.9c0,1.1,0.8,1.9,1.9,1.9l3.2,0c0,0,0,0,0,0l0,4.2l-9.4,0&#10;&#9;&#9;&#9;c-1.5,0-2.7,1.4-2.7,3.2l0,17.3c0,1.7,1.2,3.2,2.7,3.2l79.6-0.1c1.1,0,2-0.7,2.4-1.8l209.3-0.7c1.5,0,2.7-1.2,2.7-2.7L613.3,151.7&#10;&#9;&#9;&#9;z" style="opacity: 0.2;" transform="matrix(1, 0, 0, 1, 0, 0)"/><path class="st7" d="M312.9,143.7l0,4.9c0,1.5,1.2,2.7,2.7,2.7l11.6,0c1.5,0,2.7-1.2,2.7-2.7l0-4.9c0-1.5-1.2-2.7-2.7-2.7l-11.6,0&#10;&#9;&#9;&#9;C314.1,141,312.9,142.2,312.9,143.7z" style="fill: rgb(150, 150, 150);" transform="matrix(1, 0, 0, 1, 0, 0)"/><path class="st7" d="M381.4,152.3l0,14.7c0,1.5,1.2,2.7,2.7,2.7l210.8-0.7c1.5,0,2.7-1.2,2.7-2.7l0-14.7c0-1.5-1.2-2.7-2.7-2.7&#10;&#9;&#9;&#9;L384,149.7C382.6,149.7,381.4,150.9,381.4,152.3z" style="fill: rgb(150, 150, 150);" transform="matrix(1, 0, 0, 1, 0, 0)"/><path class="st8" d="M300.8,151.1l0,17.3c0,1.7,1.2,3.2,2.7,3.2l79.6-0.1c1.5,0,2.7-1.4,2.7-3.2l0-17.3c0-1.7-1.2-3.2-2.7-3.2&#10;&#9;&#9;&#9;l-79.6,0.1C302,147.9,300.8,149.3,300.8,151.1z" style="fill: rgb(83, 223, 198);" transform="matrix(1, 0, 0, 1, 0, 0)"/><path class="st8" d="M307.7,141.8c0,1.1,0.8,1.9,1.9,1.9l62.9,0c1,0,1.9-0.8,1.9-1.9c0-1-0.9-1.9-1.9-1.9l-62.9,0.1&#10;&#9;&#9;&#9;C308.6,139.9,307.7,140.8,307.7,141.8z" style="fill: rgb(83, 223, 198);" transform="matrix(1, 0, 0, 1, 0, 0)"/><g transform="matrix(1, 0, 0, 1, 0, 0)">
			<path class="st2" d="M313.5,560.5l-82.9-86l-4.5,4.3l-3.7-3.8l-17.7,27.5l25.4,26.3c0,0,0,0,0,0.1l0,0c0,0,0,0,0-0.1l14.5,15.1&#10;&#9;&#9;&#9;&#9;l39.9,41.4l28.2-16.7l-3.7-3.8L313.5,560.5z" style="opacity: 0.2;"/>
			<path class="st2" d="M180.1,572.2c-8,7.7-15.4,21.6-1.9,35.6c13.5,14,27.7,7.1,35.7-0.6c8-7.7,17.9-36.3,25.3-41.3&#10;&#9;&#9;&#9;&#9;c7.4-5,19.7-7,19.7-7l-28.9-29.9c-0.6,2.8-3.2,13.3-7.7,19.4C217.1,555.6,188.1,564.5,180.1,572.2z" style="opacity: 0.2;"/>
		</g><path d="M 194.300003 516.099976 H 313.800003 V 525.399976 H 194.300003 V 516.099976 Z" transform="matrix(0.6941000819206238, 0.7197999954223633, -0.7197999954223633, 0.6941000819206238, 452.5714111328125, -23.625)" class="st7" style="fill: rgb(150, 150, 150);"/><path class="st4" d="M215.5,528.9c0.8-4.2-1.9,11.4-7.7,19.4c-5.3,7.3-34.2,16.1-42.2,23.8c-8,7.7-15.4,21.6-1.9,35.6&#10;&#9;&#9;&#9;&#9;c13.5,14,27.7,7.1,35.7-0.6c8-7.7,17.9-36.3,25.3-41.3c7.4-5,19.7-7,19.7-7L215.5,528.9z" style="fill: rgb(251, 184, 76);" transform="matrix(1, 0, 0, 1, 0, 0)"/><path class="st4" d="M227.6,541.4c1.4,1.4,3.6,3.7,4.9,5.1l35,36.3c1.4,1.4,3.8,1.7,5.5,0.7l22.1-13.1c1.7-1,1.9-3,0.6-4.4&#10;&#9;&#9;&#9;&#9;&#9;l-40.2-41.7c-1.4-1.4-3.6-3.7-4.9-5.1l-40.2-41.7c-1.4-1.4-3.3-1.2-4.4,0.4L192,499.6c-1.1,1.6-0.8,4.1,0.5,5.5L227.6,541.4z" style="fill: rgb(251, 184, 76);" transform="matrix(1, 0, 0, 1, 0, 0)"/><path class="st2" d="M215.5,528.9c0.8-4.2-1.9,11.4-7.7,19.4c-5.3,7.3-34.2,16.1-42.2,23.8c-8,7.7-15.4,21.6-1.9,35.6&#10;&#9;&#9;&#9;&#9;c13.5,14,27.7,7.1,35.7-0.6c8-7.7,17.9-36.3,25.3-41.3c7.4-5,19.7-7,19.7-7L215.5,528.9z" style="opacity: 0.2;" transform="matrix(1, 0, 0, 1, 0, 0)"/><path class="st2" d="M539.2,462.3c-84.7,0-153.3,68.7-153.3,153.3c0,84.7,68.7,153.3,153.3,153.3c84.7,0,153.3-68.7,153.3-153.3&#10;&#9;&#9;&#9;C692.5,530.9,623.9,462.3,539.2,462.3z" style="opacity: 0.2;" transform="matrix(1, 0, 0, 1, 0, 0)"/><path class="st9" d="M521.4,462.3c-84.7,0-153.3,68.7-153.3,153.3c0,84.7,68.7,153.3,153.3,153.3c84.7,0,153.3-68.7,153.3-153.3&#10;&#9;&#9;&#9;C674.7,530.9,606.1,462.3,521.4,462.3z" style="fill: rgb(255, 255, 255);" transform="matrix(1, 0, 0, 1, 0, 0)"/><path class="st10" d="M521.4,759.3c-79.2,0-143.7-64.5-143.7-143.7c0-79.2,64.5-143.7,143.7-143.7c79.2,0,143.7,64.5,143.7,143.7&#10;&#9;&#9;&#9;&#9;C665.1,694.9,600.6,759.3,521.4,759.3z M521.4,477.1c-76.4,0-138.5,62.1-138.5,138.5c0,76.4,62.1,138.5,138.5,138.5&#10;&#9;&#9;&#9;&#9;c76.4,0,138.5-62.1,138.5-138.5C659.9,539.2,597.8,477.1,521.4,477.1z" style="fill: rgb(225, 225, 226);" transform="matrix(1, 0, 0, 1, 0, 0)"/><path class="st2" d="M539.2,517.3c-54.3,0-98.4,44-98.4,98.4c0,54.3,44,98.4,98.4,98.4c54.3,0,98.4-44,98.4-98.4&#10;&#9;&#9;&#9;C637.6,561.3,593.5,517.3,539.2,517.3z" style="opacity: 0.2;" transform="matrix(1, 0, 0, 1, 0, 0)"/><path class="st6" d="M667.6,593.2H618c-10.2-43.9-49.5-76.7-96.6-76.7c-54.7,0-99.1,44.4-99.1,99.1c0,54.7,44.4,99.1,99.1,99.1&#10;&#9;&#9;&#9;c47,0,86.4-32.7,96.6-76.7h49.7c12.4,0,22.4-10,22.4-22.4C690,603.2,680,593.2,667.6,593.2z" style="fill: rgb(253, 110, 128);" transform="matrix(1, 0, 0, 1, 0, 0)"/><path class="st10" d="M521.4,522.8c-51.2,0-92.8,41.5-92.8,92.8c0,51.3,41.5,92.8,92.8,92.8s92.8-41.5,92.8-92.8&#10;&#9;&#9;&#9;C614.2,564.4,572.6,522.8,521.4,522.8z" style="fill: rgb(225, 225, 226);" transform="matrix(1, 0, 0, 1, 0, 0)"/><path d="M 602.699989 615.599976 A 81.900002 81.900002 0 0 1 520.799988 697.499977 A 81.900002 81.900002 0 0 1 438.899986 615.599976 A 81.900002 81.900002 0 0 1 520.799988 533.699974 A 81.900002 81.900002 0 0 1 602.699989 615.599976 Z" class="st11" style="fill: rgb(67, 49, 47);" transform="matrix(1, 0, 0, 1, 0, 0)"/><path class="st12" d="M588.6,616c0,39.1-30.4,70.8-67.9,70.8c-37.5,0-67.9-31.7-67.9-70.8c0-39.1,30.4-70.8,67.9-70.8&#10;&#9;&#9;&#9;C558.2,545.2,588.6,576.9,588.6,616" style="opacity: 0.2; fill: rgb(255, 255, 255);" transform="matrix(1, 0, 0, 1, 0, 0)"/><path class="st2" d="M697.1,409.3l3.8-13.1l-64.7-15l0-0.1l64.7,15c0,0,0,0.1,0,0.1c0,0,0-0.1,0-0.1l0.5,0.1&#10;&#9;&#9;&#9;c0,0,4.5-24.7,1.2-34.2c-3.3-9.4-25-24-106-44.6c-81-20.6-122.1-16.8-126.9-13.3c-4.8,3.6-13.3,20.4-16.3,34.7l21.5,5l-2.2,25.1&#10;&#9;&#9;&#9;l150.3,18c1.4,2.9,3.9,7.3,3.5,10.8c-0.3,2.6-1.8,5.4-4.5,7.5l-4.3,2.2c0,0-0.1,0-0.1,0l-4.8,0.7H468.2c-5.6,0-10.2,4.6-10.2,10.2&#10;&#9;&#9;&#9;v2h244.7v-2C702.7,414.5,700.4,411,697.1,409.3z" style="opacity: 0.2;" transform="matrix(1, 0, 0, 1, 0, 0)"/><path d="M 455.6000061035156 369 L 617.7000122070312 388.29998779296875 L 622.7999877929688 360.79998779296875 L 458.70001220703125 333.29998779296875 Z" class="st9" style="fill: rgb(255, 255, 255);" transform="matrix(1, 0, 0, 1, 0, 0)"/><path class="st7" d="M675.3,408.2H451c-5.6,0-10.2,4.6-10.2,10.2v2h244.7v-2C685.5,412.8,680.9,408.2,675.3,408.2z" style="fill: rgb(150, 150, 150);" transform="matrix(1, 0, 0, 1, 0, 0)"/><path class="st6" d="M579.5,317.5c-81-20.6-122.1-16.8-126.9-13.3c-4.8,3.6-13.3,20.4-16.3,34.7l248.1,57.4c0,0,4.5-24.7,1.2-34.2&#10;&#9;&#9;&#9;C682.2,352.6,660.5,338.1,579.5,317.5z" style="fill: rgb(253, 110, 128);" transform="matrix(1, 0, 0, 1, 0, 0)"/><path class="st5" d="M683.7,396.2c0.6-1.7,1-3.5,0.8-5.2C684.1,394,683.8,395.9,683.7,396.2z" style="fill: rgb(74, 92, 119);" transform="matrix(1, 0, 0, 1, 0, 0)"/><path class="st5" d="M605,384.4c-0.1,1.9,5,8.5,4.3,13.4c-0.3,2.6-1.8,5.4-4.5,7.5l-4.3,2.2c0,0-0.1,0-0.1,0l-4.8,0.7h79.1&#10;&#9;&#9;&#9;&#9;c1.9,0,3.6,0.5,5.2,1.4l3.8-13.4l-77.5-17.9C605.7,380.6,605.1,383.3,605,384.4z" style="fill: rgb(74, 92, 119);" transform="matrix(1, 0, 0, 1, 0, 0)"/><path d="M 660.499988 368.100006 A 7.2 7.2 0 0 1 653.299988 375.300006 A 7.2 7.2 0 0 1 646.099988 368.100006 A 7.2 7.2 0 0 1 653.299988 360.900006 A 7.2 7.2 0 0 1 660.499988 368.100006 Z" class="st9" style="fill: rgb(255, 255, 255);" transform="matrix(1, 0, 0, 1, 0, 0)"/><g class="st2" transform="matrix(1, 0, 0, 1, 0, 0)" style="opacity: 0.2;">
			<g>
				<g>
					<path d="M351.9,738.8l0.7-2.2c0.1-0.3,0-0.7-0.3-0.9c-3.6-2.6-27.5-19.4-48.9-24.1L70.5,638.3l0,0.1l-4.2-1.3l-3.5,11.1&#10;&#9;&#9;&#9;&#9;&#9;&#9;l2.2-6.9L53,637.4c-0.9-0.3-1.8,0.2-2.1,1.2l-3.7,11.7c-0.3,0.8,0.2,1.7,0.9,1.9l12.1,3.8l-1.7,5.2l4.3,1.4l0,0.1L295.7,736&#10;&#9;&#9;&#9;&#9;&#9;&#9;c0,0,19.7,8.4,53.9,8.4c0.3,0,0.6-0.2,0.7-0.5l0.7-2.3l4.6,1.5c0.1,0,0.2,0,0.2-0.1l0.8-2.7L351.9,738.8z"/>
				</g>
				<g>
					<path d="M 358.8999938964844 741.7000122070312 L 356.5 740.9000244140625 L 356.1000061035156 742.2999877929688 L 356 742.5 L 358.5 743.2999877929688 L 361 743.0999755859375 Z"/>
				</g>
			</g>
		</g><path class="st3" d="M53.3,636.8l-3.6,11.4c-0.2,0.8,0.2,1.6,0.9,1.8l11.8,3.7l4.5-14.4l-11.6-3.7&#10;&#9;&#9;&#9;C54.5,635.4,53.6,635.9,53.3,636.8" style="fill: rgb(115, 133, 167);" transform="matrix(1, 0, 0, 1, 0, 0)"/><path d="M 46.5 635.7999877929688 L 38.79999923706055 659.9000244140625 L 44.79999923706055 661.7999877929688 L 52.5 637.7000122070312 Z" class="st5" style="fill: rgb(74, 92, 119);" transform="matrix(1, 0, 0, 1, 0, 0)"/><path d="M 150.600006 563.900024 H 176.100006 V 808.100021 H 150.600006 V 563.900024 Z" transform="matrix(0.30070000886917114, -0.953700065612793, 0.953700065612793, 0.30070000886917114, -539.9901123046875, 635.4376831054689)" class="st13" style="fill: rgb(108, 195, 255);"/><path class="st14" d="M314.3,741.5c0,0-20.9-2.5-32.9-6.7c0,0-2.4-0.9-2.3-2.5C279.1,732.3,308.7,740.1,314.3,741.5" style="fill: rgb(99, 100, 99);" transform="matrix(1, 0, 0, 1, 0, 0)"/><g transform="matrix(1, 0, 0, 1, 0, 0)">
				<path class="st5" d="M329.7,736.9l-0.9,2.8l7,2.2c0.1,0,0.2,0,0.2-0.1l0.8-2.7L329.7,736.9z" style="fill: rgb(74, 92, 119);"/>
				<path d="M 339.1000061035156 740.5 L 336.70001220703125 739.7999877929688 L 336.29998779296875 741.0999755859375 L 336.20001220703125 741.2999877929688 L 338.70001220703125 742.0999755859375 L 341.20001220703125 742 Z" class="st5" style="fill: rgb(74, 92, 119);"/>
			</g><path class="st3" d="M55,643.2l-4.1,13c-0.3,0.8,0.2,1.6,1,1.9l74.5,23.5c0.8,0.3,1.7-0.2,2-1l4.1-13c0.2-0.8-0.2-1.7-1-1.9&#10;&#9;&#9;&#9;l-74.5-23.5C56.1,642,55.2,642.4,55,643.2" style="fill: rgb(115, 133, 167);" transform="matrix(1, 0, 0, 1, 0, 0)"/><path class="st3" d="M275.9,734.8c0,0,19.7,8.4,53.9,8.4c0.3,0,0.6-0.2,0.7-0.5l2.3-7.3c0.1-0.3,0-0.7-0.3-0.9&#10;&#9;&#9;&#9;c-3.6-2.6-27.5-19.4-48.9-24.1L275.9,734.8z" style="fill: rgb(115, 133, 167);" transform="matrix(1, 0, 0, 1, 0, 0)"/><path class="st2" d="M645.6,806.7L120,806.9l0,64l525.3,0.1L645.6,806.7z M615.5,837.6c-5.1,0-9.3-4.1-9.3-9.3&#10;&#9;&#9;&#9;c0-5.1,4.1-9.3,9.3-9.3c5.1,0,9.3,4.1,9.3,9.3C624.8,833.4,620.6,837.6,615.5,837.6z" style="opacity: 0.2;" transform="matrix(1, 0, 0, 1, 0, 0)"/><path class="st4" d="M631.6,806.7L106,806.9l0,64l525.3,0.1L631.6,806.7z M601.5,837.6c-5.1,0-9.3-4.1-9.3-9.3&#10;&#9;&#9;&#9;c0-5.1,4.1-9.3,9.3-9.3c5.1,0,9.3,4.1,9.3,9.3C610.8,833.4,606.6,837.6,601.5,837.6z" style="fill: rgb(251, 184, 76);" transform="matrix(1, 0, 0, 1, 0, 0)"/><path d="M 612.799988 864.599976 H 622.799988 V 867.299976 H 612.799988 V 864.599976 Z" transform="matrix(-0.004095590207725763, 1, -1, -0.004095590207725763, 1486.2635498046875, 251.66079711914062)"/><path d="M 599.7999877929688 870.9000244140625 L 599.7999877929688 866.0999755859375 L 602.5 866.0999755859375 L 602.5 870.9000244140625 Z" transform="matrix(1, 0, 0, 1, 0, 0)"/><path d="M 579.400024 864.599976 H 589.400024 V 867.299976 H 579.400024 V 864.599976 Z" transform="matrix(-0.0040863994508981705, 1, -1, -0.0040863994508981705, 1452.7646484375, 285.0006103515625)"/><path d="M 566.4000244140625 870.9000244140625 L 566.4000244140625 866.0999755859375 L 569.0999755859375 866.0999755859375 L 569.0999755859375 870.9000244140625 Z" transform="matrix(1, 0, 0, 1, 0, 0)"/><path d="M 549.7000122070312 870.9000244140625 L 549.7999877929688 860.9000244140625 L 552.5 860.9000244140625 L 552.5 870.9000244140625 Z" transform="matrix(1, 0, 0, 1, 0, 0)"/><path d="M 533.0999755859375 870.9000244140625 L 533.0999755859375 866.0999755859375 L 535.7999877929688 866.0999755859375 L 535.7999877929688 870.9000244140625 Z" transform="matrix(1, 0, 0, 1, 0, 0)"/><path d="M 512.700012 864.599976 H 522.700012 V 867.299976 H 512.700012 V 864.599976 Z" transform="matrix(-0.004575151950120926, 1, -1, -0.004575151950120926, 1386.0457763671875, 352.12091064453125)"/><path d="M 498.700012 867.200012 H 503.500012 V 869.900012 H 498.700012 V 867.200012 Z" transform="matrix(-0.0038638093974441294, 1, -1, -0.0038638093974441294, 1371.5338134765625, 370.8158874511719)"/><path d="M 479.399994 864.599976 H 489.399994 V 867.299976 H 479.399994 V 864.599976 Z" transform="matrix(-0.004235054366290569, 1, -1, -0.004235054366290569, 1352.384521484375, 385.1755065917969)"/><path d="M 465.299988 867.200012 H 470.099988 V 869.900012 H 465.299988 V 867.200012 Z" transform="matrix(-0.003949663136154413, 1, -1, -0.003949663136154413, 1338.10498046875, 404.2380065917969)"/><path d="M 449.70001220703125 870.9000244140625 L 449.70001220703125 860.9000244140625 L 452.3999938964844 860.9000244140625 L 452.3999938964844 870.9000244140625 Z" transform="matrix(1, 0, 0, 1, 0, 0)"/><path d="M 432 867.200012 H 436.8 V 869.900012 H 432 V 867.200012 Z" transform="matrix(-0.005382859613746405, 1, -1, -0.005382859613746405, 1305.2352294921875, 438.83929443359375)"/><path d="M 416.29998779296875 870.9000244140625 L 416.3999938964844 860.9000244140625 L 419.1000061035156 860.9000244140625 L 419 870.9000244140625 Z" transform="matrix(1, 0, 0, 1, 0, 0)"/><path d="M 398.600006 867.200012 H 403.400006 V 869.900012 H 398.600006 V 867.200012 Z" transform="matrix(-0.00436804024502635, 1, -1, -0.00436804024502635, 1271.311767578125, 471.29760742187506)"/><path d="M 383 870.9000244140625 L 383 860.9000244140625 L 385.70001220703125 860.9000244140625 L 385.70001220703125 870.9000244140625 Z" transform="matrix(1, 0, 0, 1, 0, 0)"/><path d="M 365.299988 867.200012 H 370.099988 V 869.900012 H 365.299988 V 867.200012 Z" transform="matrix(-0.005387110635638237, 1, -1, -0.005387110635638237, 1238.1776123046875, 505.5392150878907)"/><path d="M 349.6000061035156 870.9000244140625 L 349.70001220703125 860.9000244140625 L 352.3999938964844 860.9000244140625 L 352.29998779296875 870.9000244140625 Z" transform="matrix(1, 0, 0, 1, 0, 0)"/><path d="M 333 870.9000244140625 L 333 866.0999755859375 L 335.70001220703125 866.0999755859375 L 335.70001220703125 870.9000244140625 Z" transform="matrix(1, 0, 0, 1, 0, 0)"/><path d="M 312.600006 864.599976 H 322.600006 V 867.299976 H 312.600006 V 864.599976 Z" transform="matrix(-0.00457385228946805, 1, -1, -0.00457385228946805, 1185.02490234375, 552.2227172851564)"/><path d="M 299.6000061035156 870.9000244140625 L 299.6000061035156 866.0999755859375 L 302.29998779296875 866.0999755859375 L 302.29998779296875 870.9000244140625 Z" transform="matrix(1, 0, 0, 1, 0, 0)"/><path d="M 282.8999938964844 870.9000244140625 L 283 860.9000244140625 L 285.70001220703125 860.9000244140625 L 285.70001220703125 870.9000244140625 Z" transform="matrix(1, 0, 0, 1, 0, 0)"/><path d="M 265.200012 867.200012 H 270.000012 V 869.900012 H 265.200012 V 867.200012 Z" transform="matrix(-0.003972845152020454, 1, -1, -0.003972845152020454, 1137.2171630859375, 604.3651123046876)"/><path d="M 249.60000610351562 870.9000244140625 L 249.60000610351562 860.9000244140625 L 252.3000030517578 860.9000244140625 L 252.3000030517578 870.9000244140625 Z" transform="matrix(1, 0, 0, 1, 0, 0)"/><path d="M 232.89999389648438 870.9000244140625 L 232.89999389648438 866.0999755859375 L 235.60000610351562 866.0999755859375 L 235.60000610351562 870.9000244140625 Z" transform="matrix(1, 0, 0, 1, 0, 0)"/><path d="M 212.600006 864.599976 H 222.600006 V 867.299976 H 212.600006 V 864.599976 Z" transform="matrix(-0.004236279055476189, 1, -1, -0.004236279055476189, 1084.44970703125, 651.9832763671876)"/><path d="M 198.5 867.200012 H 203.3 V 869.900012 H 198.5 V 867.200012 Z" transform="matrix(-0.004365409258753061, 1, -1, -0.004365409258753061, 1070.3319091796875, 671.3967285156251)"/><path d="M 179.300003 864.599976 H 189.300003 V 867.299976 H 179.300003 V 864.599976 Z" transform="matrix(-0.0041370149701833725, 1, -1, -0.0041370149701833725, 1050.9447021484375, 685.2418823242189)"/><path d="M 165.199997 867.200012 H 169.999997 V 869.900012 H 165.199997 V 867.200012 Z" transform="matrix(-0.005179230589419603, 1, -1, -0.005179230589419603, 1036.964111328125, 705.4561767578126)"/><path d="M 145.899994 864.599976 H 155.899994 V 867.299976 H 145.899994 V 864.599976 Z" transform="matrix(-0.004085991997271776, 1, -1, -0.004085991997271776, 1017.4431762695314, 718.5463867187501)"/><path d="M 132.89999389648438 870.9000244140625 L 132.89999389648438 866.0999755859375 L 135.60000610351562 866.0999755859375 L 135.60000610351562 870.9000244140625 Z" transform="matrix(1, 0, 0, 1, 0, 0)"/><path d="M 112.5 864.599976 H 122.5 V 867.299976 H 112.5 V 864.599976 Z" transform="matrix(-0.0037465302739292383, 1, -1, -0.0037465302739292383, 983.9208984375001, 751.6060791015626)"/><path d="M120.3,850c0,2.7-1,4.2-2.8,4.2c-1.6,0-2.6-1.5-2.6-4.1c0-2.7,1.2-4.2,2.8-4.2C119.3,846,120.3,847.5,120.3,850z&#10;&#9;&#9;&#9; M115.9,850.1c0,2.1,0.6,3.3,1.6,3.3c1.1,0,1.6-1.3,1.6-3.3c0-2-0.5-3.3-1.6-3.3C116.6,846.8,115.9,847.9,115.9,850.1z" transform="matrix(1, 0, 0, 1, 0, 0)"/><path d="M150.3,847.2L150.3,847.2l-1.4,0.8l-0.2-0.8l1.7-0.9h0.9v8h-1V847.2z" transform="matrix(1, 0, 0, 1, 0, 0)"/><path d="M182.2,854.2v-0.7l0.9-0.8c2-1.9,3-3,3-4.2c0-0.8-0.4-1.6-1.6-1.6c-0.7,0-1.3,0.4-1.7,0.7l-0.3-0.8&#10;&#9;&#9;&#9;c0.6-0.5,1.3-0.8,2.3-0.8c1.7,0,2.5,1.2,2.5,2.3c0,1.5-1.1,2.7-2.8,4.3l-0.6,0.6v0h3.6v0.9H182.2z" transform="matrix(1, 0, 0, 1, 0, 0)"/><path d="M215.4,852.9c0.3,0.2,1,0.5,1.8,0.5c1.4,0,1.8-0.9,1.8-1.6c0-1.1-1-1.6-2.1-1.6h-0.6v-0.8h0.6c0.8,0,1.8-0.4,1.8-1.4&#10;&#9;&#9;&#9;c0-0.6-0.4-1.2-1.4-1.2c-0.6,0-1.3,0.3-1.6,0.5l-0.3-0.8c0.4-0.3,1.2-0.6,2.1-0.6c1.6,0,2.3,0.9,2.3,1.9c0,0.8-0.5,1.5-1.5,1.9v0&#10;&#9;&#9;&#9;c1,0.2,1.8,0.9,1.8,2.1c0,1.3-1,2.4-2.9,2.4c-0.9,0-1.7-0.3-2.1-0.5L215.4,852.9z" transform="matrix(1, 0, 0, 1, 0, 0)"/><path d="M251.2,854.2V852h-3.7v-0.7l3.6-5.1h1.2v5h1.1v0.8h-1.1v2.2H251.2z M251.2,851.2v-2.7c0-0.4,0-0.8,0-1.3h0&#10;&#9;&#9;&#9;c-0.2,0.5-0.4,0.8-0.7,1.2l-2,2.7v0H251.2z" transform="matrix(1, 0, 0, 1, 0, 0)"/><path d="M286.6,847h-3.1l-0.3,2.1c0.2,0,0.4,0,0.7,0c0.6,0,1.2,0.1,1.7,0.4c0.6,0.4,1.1,1,1.1,2.1c0,1.6-1.2,2.7-3,2.7&#10;&#9;&#9;&#9;c-0.9,0-1.6-0.2-2-0.5l0.3-0.8c0.3,0.2,1,0.4,1.7,0.4c1,0,1.9-0.7,1.9-1.7c0-1-0.7-1.8-2.3-1.8c-0.5,0-0.8,0-1.1,0.1l0.5-3.8h3.8&#10;&#9;&#9;&#9;V847z" transform="matrix(1, 0, 0, 1, 0, 0)"/><path d="M319.6,846.9c-0.2,0-0.5,0-0.8,0c-1.7,0.3-2.6,1.5-2.8,2.8h0c0.4-0.5,1-0.9,1.9-0.9c1.4,0,2.4,1,2.4,2.6&#10;&#9;&#9;&#9;c0,1.5-1,2.8-2.7,2.8c-1.7,0-2.8-1.3-2.8-3.4c0-1.6,0.6-2.8,1.4-3.6c0.7-0.7,1.6-1.1,2.6-1.2c0.3,0,0.6-0.1,0.8-0.1V846.9z&#10;&#9;&#9;&#9; M319.3,851.5c0-1.1-0.7-1.8-1.7-1.8c-0.7,0-1.3,0.4-1.6,1c-0.1,0.1-0.1,0.3-0.1,0.5c0,1.3,0.6,2.3,1.8,2.3&#10;&#9;&#9;&#9;C318.7,853.4,319.3,852.6,319.3,851.5z" transform="matrix(1, 0, 0, 1, 0, 0)"/><path d="M353.5,846.2v0.7l-3.5,7.3h-1.1l3.5-7.1v0h-3.9v-0.9H353.5z" transform="matrix(1, 0, 0, 1, 0, 0)"/><path d="M381.4,852.1c0-1,0.6-1.7,1.6-2.1l0,0c-0.9-0.4-1.3-1.1-1.3-1.8c0-1.3,1.1-2.1,2.5-2.1c1.6,0,2.3,1,2.3,2&#10;&#9;&#9;&#9;c0,0.7-0.3,1.4-1.3,1.9v0c1,0.4,1.6,1.1,1.6,2.1c0,1.4-1.2,2.3-2.7,2.3C382.5,854.2,381.4,853.2,381.4,852.1z M385.8,852&#10;&#9;&#9;&#9;c0-1-0.7-1.4-1.8-1.7c-0.9,0.3-1.4,0.9-1.4,1.6c0,0.8,0.6,1.5,1.6,1.5C385.1,853.4,385.8,852.8,385.8,852z M382.8,848&#10;&#9;&#9;&#9;c0,0.8,0.6,1.2,1.5,1.5c0.7-0.2,1.2-0.7,1.2-1.5c0-0.6-0.4-1.3-1.4-1.3C383.3,846.7,382.8,847.3,382.8,848z" transform="matrix(1, 0, 0, 1, 0, 0)"/><path d="M415.7,853.3c0.2,0,0.5,0,0.9,0c0.6-0.1,1.2-0.3,1.7-0.8c0.5-0.5,0.9-1.2,1.1-2.1h0c-0.4,0.5-1.1,0.9-1.9,0.9&#10;&#9;&#9;&#9;c-1.4,0-2.4-1.1-2.4-2.5c0-1.5,1.1-2.8,2.7-2.8c1.6,0,2.6,1.3,2.6,3.4c0,1.8-0.6,3-1.4,3.8c-0.6,0.6-1.5,1-2.3,1.1&#10;&#9;&#9;&#9;c-0.4,0.1-0.7,0.1-1,0.1V853.3z M416.1,848.7c0,1,0.6,1.7,1.5,1.7c0.7,0,1.3-0.4,1.6-0.8c0.1-0.1,0.1-0.2,0.1-0.4&#10;&#9;&#9;&#9;c0-1.4-0.5-2.4-1.6-2.4C416.7,846.8,416.1,847.6,416.1,848.7z" transform="matrix(1, 0, 0, 1, 0, 0)"/><path d="M447.2,847.2L447.2,847.2l-1.4,0.8l-0.2-0.8l1.7-0.9h0.9v8h-1V847.2z" transform="matrix(1, 0, 0, 1, 0, 0)"/><path d="M456.5,850c0,2.7-1,4.2-2.8,4.2c-1.6,0-2.6-1.5-2.6-4.1c0-2.7,1.2-4.2,2.8-4.2C455.6,846,456.5,847.5,456.5,850z&#10;&#9;&#9;&#9; M452.2,850.1c0,2.1,0.6,3.3,1.6,3.3c1.1,0,1.6-1.3,1.6-3.3c0-2-0.5-3.3-1.6-3.3C452.9,846.8,452.2,847.9,452.2,850.1z" transform="matrix(1, 0, 0, 1, 0, 0)"/><path d="M481.5,847.2L481.5,847.2l-1.4,0.8l-0.2-0.8l1.7-0.9h0.9v8h-1V847.2z" transform="matrix(1, 0, 0, 1, 0, 0)"/><path d="M487.9,847.2L487.9,847.2l-1.4,0.8l-0.2-0.8l1.7-0.9h0.9v8h-1V847.2z" transform="matrix(1, 0, 0, 1, 0, 0)"/><path d="M514,847.2L514,847.2l-1.4,0.8l-0.2-0.8l1.7-0.9h0.9v8h-1V847.2z" transform="matrix(1, 0, 0, 1, 0, 0)"/><path d="M518,854.2v-0.7l0.9-0.8c2-1.9,3-3,3-4.2c0-0.8-0.4-1.6-1.6-1.6c-0.7,0-1.3,0.4-1.7,0.7l-0.3-0.8&#10;&#9;&#9;&#9;&#9;c0.6-0.5,1.3-0.8,2.3-0.8c1.7,0,2.5,1.2,2.5,2.3c0,1.5-1.1,2.7-2.8,4.3l-0.6,0.6v0h3.6v0.9H518z" transform="matrix(1, 0, 0, 1, 0, 0)"/><path d="M547.5,847.1L547.5,847.1l-1.4,0.8l-0.2-0.8l1.7-0.9h0.9v8h-1V847.1z" transform="matrix(1, 0, 0, 1, 0, 0)"/><path d="M551.7,852.9c0.3,0.2,1,0.5,1.8,0.5c1.4,0,1.8-0.9,1.8-1.6c0-1.1-1-1.6-2.1-1.6h-0.6v-0.8h0.6c0.8,0,1.8-0.4,1.8-1.4&#10;&#9;&#9;&#9;&#9;c0-0.6-0.4-1.2-1.4-1.2c-0.6,0-1.3,0.3-1.6,0.5l-0.3-0.8c0.4-0.3,1.2-0.6,2.1-0.6c1.6,0,2.3,0.9,2.3,1.9c0,0.8-0.5,1.5-1.5,1.9v0&#10;&#9;&#9;&#9;&#9;c1,0.2,1.8,0.9,1.8,2.1c0,1.3-1,2.4-2.9,2.4c-0.9,0-1.7-0.3-2.1-0.5L551.7,852.9z" transform="matrix(1, 0, 0, 1, 0, 0)"/><path d="M580.5,847.2L580.5,847.2l-1.4,0.8l-0.2-0.8l1.7-0.9h0.9v8h-1V847.2z" transform="matrix(1, 0, 0, 1, 0, 0)"/><path d="M587.9,854.2V852h-3.7v-0.7l3.6-5.1h1.2v5h1.1v0.8h-1.1v2.2H587.9z M587.9,851.2v-2.7c0-0.4,0-0.8,0-1.3h0&#10;&#9;&#9;&#9;&#9;c-0.2,0.5-0.4,0.8-0.7,1.2l-2,2.7v0H587.9z" transform="matrix(1, 0, 0, 1, 0, 0)"/><path d="M612.8,847.1L612.8,847.1l-1.4,0.8l-0.2-0.8l1.7-0.9h0.9v8h-1V847.1z" transform="matrix(1, 0, 0, 1, 0, 0)"/><path d="M621.6,847h-3.1l-0.3,2.1c0.2,0,0.4,0,0.7,0c0.6,0,1.2,0.1,1.7,0.4c0.6,0.4,1.1,1,1.1,2.1c0,1.6-1.2,2.7-3,2.7&#10;&#9;&#9;&#9;&#9;c-0.9,0-1.6-0.2-2-0.5l0.3-0.8c0.3,0.2,1,0.4,1.7,0.4c1,0,1.9-0.7,1.9-1.7c0-1-0.7-1.8-2.3-1.8c-0.5,0-0.8,0-1.1,0.1l0.5-3.8h3.8&#10;&#9;&#9;&#9;&#9;V847z" transform="matrix(1, 0, 0, 1, 0, 0)"/><path class="st2" d="M372.9,383.7l-42,0.1l2,8.9l-0.7,0.2l-1.9-8.4L129,430.1l0,0l-8.5,1.9l0,0l-5.2,1.2c-0.7,0.1-1.3,0.6-1.7,1.2&#10;&#9;&#9;&#9;c-0.4,0.6-0.5,1.3-0.3,2l2.8,12.6c0.1,0.7,0.6,1.3,1.2,1.7c0.6,0.4,1.3,0.5,2,0.3l5.2-1.2v0l8.5-1.9l-0.1-0.5L335,401.6l25.9-12.2&#10;&#9;&#9;&#9;l0,0L372.9,383.7z" style="opacity: 0.2;" transform="matrix(1, 0, 0, 1, 0, 0)"/><path d="M 314.29998779296875 401.6000061035156 L 312.29998779296875 392.70001220703125 L 311.6000061035156 392.8999938964844 L 309.70001220703125 384.5 L 94.69999694824219 433.20001220703125 L 96.69999694824219 442.1000061035156 L 97.4000015258789 441.8999938964844 L 99.30000305175781 450.29998779296875 Z" class="st8" style="fill: rgb(83, 223, 198);" transform="matrix(1, 0, 0, 1, 0, 0)"/><path d="M 310.29998779296875 383.79998779296875 L 312.29998779296875 392.70001220703125 L 314.29998779296875 401.6000061035156 L 352.29998779296875 383.70001220703125 Z" class="st9" style="fill: rgb(255, 255, 255);" transform="matrix(1, 0, 0, 1, 0, 0)"/><path d="M 338.8999938964844 383.70001220703125 L 339.5 386.6000061035156 L 340.20001220703125 389.3999938964844 L 352.29998779296875 383.70001220703125 Z" transform="matrix(1, 0, 0, 1, 0, 0)"/><path class="st9" d="M98.6,450.9c-0.7,0.1-1.4,0-2-0.3c-0.6-0.4-1-1-1.2-1.7l-2.8-12.6c-0.1-0.7,0-1.4,0.3-2c0.4-0.6,1-1,1.7-1.2&#10;&#9;&#9;&#9;l5.2-1.2l4,17.8L98.6,450.9z" style="fill: rgb(255, 255, 255);" transform="matrix(1, 0, 0, 1, 0, 0)"/><path d="M 108.30000305175781 430.1000061035156 L 99.80000305175781 432 L 101.80000305175781 440.8999938964844 L 103.80000305175781 449.70001220703125 L 112.30000305175781 447.79998779296875 L 110.30000305175781 438.8999938964844 Z" class="st6" style="fill: rgb(253, 110, 128);" transform="matrix(1, 0, 0, 1, 0, 0)"/><g id="pin_2_" transform="matrix(1, 0, 0, 1, 0, 0)">
			<g>
				<path d="M 162.10000610351562 257.8999938964844 L 157.60000610351562 259.6000061035156 L 149.3000030517578 238.10000610351562 L 153.8000030517578 236.39999389648438 L 152.10000610351562 232 L 125.69999694824219 242.1999969482422 L 127.4000015258789 246.60000610351562 L 131.89999389648438 244.8000030517578 L 140.1999969482422 266.29998779296875 L 148.89999389648438 263 L 135.6999969482422 268.1000061035156 L 137.39999389648438 272.5 L 163.8000030517578 262.20001220703125 Z" class="st15" style="fill: rgb(210, 210, 210);"/>
				
					<path d="M 142 277.5 H 168.9 V 282.2 H 142 V 277.5 Z" transform="matrix(-0.3606 -0.9327 0.9327 -0.3606 -49.5547 525.8134)" class="st15" style="fill: rgb(210, 210, 210);"/>
			</g>
			<path d="M 157.5 259 L 153 260.70001220703125 L 144.6999969482422 239.1999969482422 L 149.1999969482422 237.5 L 147.5 233.10000610351562 L 121.0999984741211 243.39999389648438 L 122.80000305175781 247.6999969482422 L 127.30000305175781 246 L 135.60000610351562 267.5 L 144.3000030517578 264.1000061035156 L 131.10000610351562 269.20001220703125 L 132.8000030517578 273.6000061035156 L 159.1999969482422 263.3999938964844 Z" class="st4" style="fill: rgb(251, 184, 76);"/>
			
				<path d="M 130.800003 241.800003 H 149.500004 V 264.800003 H 130.800003 V 241.800003 Z" transform="matrix(0.9327 -0.3606 0.3606 0.9327 -81.9385 67.5852)" class="st15" style="fill: rgb(210, 210, 210);"/>
			
				<path d="M 148.5 267.600006 H 153.2 V 294.500006 H 148.5 V 267.600006 Z" transform="matrix(-0.9328 0.3605 -0.3605 -0.9328 392.8004 488.7863)" class="st7" style="fill: rgb(150, 150, 150);"/>
		</g><g transform="matrix(1, 0, 0, 1, 0, 0)">
				
					<path d="M 259.200012 327.600006 H 287.600012 V 332.300006 H 259.200012 V 327.600006 Z" transform="matrix(-0.9523 -0.3052 0.3052 -0.9523 433.096 727.6364)" class="st15" style="fill: rgb(210, 210, 210);"/>
				<path d="M 296.1000061035156 305.6000061035156 L 269.1000061035156 297 L 267.70001220703125 301.5 L 272.29998779296875 302.8999938964844 L 265.29998779296875 324.8999938964844 L 283 330.6000061035156 L 290.1000061035156 308.6000061035156 L 294.70001220703125 310.1000061035156 Z" class="st15" style="fill: rgb(210, 210, 210);"/>
				
					<path d="M 266.200012 331.600006 H 270.900012 V 358.500006 H 266.200012 V 331.600006 Z" transform="matrix(-0.9522 -0.3053 0.3053 -0.9522 419.0199 755.5233)" class="st15" style="fill: rgb(210, 210, 210);"/>
			</g><g transform="matrix(1, 0, 0, 1, 0, 0)">
					
						<path d="M 254.100006 326.200012 H 282.500006 V 330.900012 H 254.100006 V 326.200012 Z" transform="matrix(-0.9523 -0.3052 0.3052 -0.9523 423.57 723.2579)" class="st8" style="fill: rgb(83, 223, 198);"/>
					<path d="M 291 304.20001220703125 L 264 295.5 L 262.6000061035156 300 L 267.20001220703125 301.5 L 260.1000061035156 323.3999938964844 L 277.8999938964844 329.1000061035156 L 285 307.20001220703125 L 289.6000061035156 308.70001220703125 Z" class="st8" style="fill: rgb(83, 223, 198);"/>
				</g><path d="M 263.200012 303.799988 H 281.900013 V 326.799988 H 263.200012 V 303.799988 Z" transform="matrix(0.9523000121116638, 0.3052000105381012, -0.3052000105381012, 0.9523000121116638, 109.22000122070312, -68.12960052490234)" class="st15" style="fill: rgb(210, 210, 210);"/><path d="M 261.100006 330.100006 H 265.800006 V 357.000006 H 261.100006 V 330.100006 Z" transform="matrix(-0.9523000121116638, -0.3052999973297119, 0.3052999973297119, -0.9523000121116638, 409.5237121582031, 751.1347045898439)" class="st7" style="fill: rgb(150, 150, 150);"/><path d="M 196.5 344.29998779296875 L 195.39999389648438 339.70001220703125 L 169.1999969482422 345.70001220703125 L 170.1999969482422 350 L 166.60000610351562 334.20001220703125 L 162 335.20001220703125 L 163.10000610351562 340 L 140.60000610351562 345.1000061035156 L 139.60000610351562 340.3999938964844 L 135 341.3999938964844 L 141.3000030517578 369.1000061035156 L 145.89999389648438 368 L 144.39999389648438 361.70001220703125 L 144.8000030517578 363.29998779296875 L 167.3000030517578 358.20001220703125 L 165.1999969482422 349.1000061035156 L 168.3000030517578 362.8999938964844 L 172.89999389648438 361.79998779296875 L 170.3000030517578 350.29998779296875 Z" class="st15" style="fill: rgb(210, 210, 210);" transform="matrix(1, 0, 0, 1, 0, 0)"/><path d="M 167.39999389648438 359.6000061035156 L 161 331.8999938964844 L 156.39999389648438 332.8999938964844 L 157.5 337.70001220703125 L 135.10000610351562 342.79998779296875 L 134 338.1000061035156 L 129.39999389648438 339.1000061035156 L 135.6999969482422 366.79998779296875 L 140.3000030517578 365.70001220703125 L 138.89999389648438 359.70001220703125 L 139.1999969482422 361 L 161.6999969482422 355.8999938964844 L 159.5 346.29998779296875 L 162.8000030517578 360.6000061035156 Z" class="st13" style="fill: rgb(108, 195, 255);" transform="matrix(1, 0, 0, 1, 0, 0)"/><path d="M 139 337.799988 H 157.700001 V 360.799988 H 139 V 337.799988 Z" transform="matrix(-0.22300000488758087, -0.9748000502586366, 0.9748000502586366, -0.22300000488758087, -159.0946044921875, 571.8732299804689)" class="st15" style="fill: rgb(210, 210, 210);"/><path d="M 174.899994 329.299988 H 179.599994 V 356.199987 H 174.899994 V 329.299988 Z" transform="matrix(0.2232000082731247, 0.9748000502586366, -0.9748000502586366, 0.2232000082731247, 471.8241882324219, 93.44219970703125)" class="st7" style="fill: rgb(150, 150, 150);"/><g class="st2" transform="matrix(1, 0, 0, 1, 0, 0)" style="opacity: 0.2;">
			<path d="M759.1,849.1c0,14.3,11.6,25.8,25.8,25.8h541.7c14.3,0,25.8-11.6,25.8-25.8V172.2c0-14.3-11.6-25.8-25.8-25.8H784.9&#10;&#9;&#9;&#9;&#9;c-14.3,0-25.8,11.6-25.8,25.8V849.1z"/>
		</g><path class="st5" d="M736.9,849.1c0,14.3,11.6,25.8,25.8,25.8h541.7c14.3,0,25.8-11.6,25.8-25.8V172.2&#10;&#9;&#9;&#9;&#9;c0-14.3-11.6-25.8-25.8-25.8H762.7c-14.3,0-25.8,11.6-25.8,25.8V849.1z" style="fill: rgb(74, 92, 119);" transform="matrix(1, 0, 0, 1, 0, 0)"/><path d="M 1322.5 196.39999389648438 L 1296.9000244140625 195.3000030517578 L 1296.9000244140625 187.3000030517578 L 1102.800048828125 187.10000610351562 L 807.5999755859375 174.6999969482422 L 807.5999755859375 186.89999389648438 L 801.2000122070312 186.89999389648438 L 801.2000122070312 828.0999755859375 L 1296.4000244140625 828.5 L 1296.5 801.5999755859375 L 1297 801.5999755859375 Z" class="st2" style="opacity: 0.2;" transform="matrix(1, 0, 0, 1, 0, 0)"/><path d="M 787.7999877929688 780.9000244140625 L 1277.0999755859375 801.5999755859375 L 1302.699951171875 196.39999389648438 L 787.7999877929688 174.6999969482422 Z" class="st10" style="fill: rgb(225, 225, 226);" transform="matrix(1, 0, 0, 1, 0, 0)"/><path d="M 781.2999877929688 828.0999755859375 L 1276.5999755859375 828.5 L 1277 187.3000030517578 L 781.2999877929688 186.89999389648438 Z" class="st9" style="fill: rgb(255, 255, 255);" transform="matrix(1, 0, 0, 1, 0, 0)"/><path d="M 827.299988 249.100006 H 1224 V 461.100006 H 827.299988 V 249.100006 Z" class="st16" style="fill: rgb(208, 214, 216);" transform="matrix(1, 0, 0, 1, 0, 0)"/><path d="M 827.299988 480 H 1224 V 487.1 H 827.299988 V 480 Z" class="st16" style="fill: rgb(208, 214, 216);" transform="matrix(1, 0, 0, 1, 0, 0)"/><path d="M 827.299988 503 H 1224 V 510.1 H 827.299988 V 503 Z" class="st16" style="fill: rgb(208, 214, 216);" transform="matrix(1, 0, 0, 1, 0, 0)"/><path d="M 827.299988 525.900024 H 1224 V 533.000024 H 827.299988 V 525.900024 Z" class="st16" style="fill: rgb(208, 214, 216);" transform="matrix(1, 0, 0, 1, 0, 0)"/><path d="M 827.299988 548.900024 H 1224 V 556.000024 H 827.299988 V 548.900024 Z" class="st16" style="fill: rgb(208, 214, 216);" transform="matrix(1, 0, 0, 1, 0, 0)"/><path d="M 989.900024 571.799988 H 1224.000031 V 578.899988 H 989.900024 V 571.799988 Z" class="st16" style="fill: rgb(208, 214, 216);" transform="matrix(1, 0, 0, 1, 0, 0)"/><path d="M 989.900024 594.700012 H 1224.000031 V 601.800012 H 989.900024 V 594.700012 Z" class="st16" style="fill: rgb(208, 214, 216);" transform="matrix(1, 0, 0, 1, 0, 0)"/><path d="M 989.900024 617.700012 H 1224.000031 V 624.800012 H 989.900024 V 617.700012 Z" class="st16" style="fill: rgb(208, 214, 216);" transform="matrix(1, 0, 0, 1, 0, 0)"/><path d="M 989.900024 640.599976 H 1224.000031 V 647.699975 H 989.900024 V 640.599976 Z" class="st16" style="fill: rgb(208, 214, 216);" transform="matrix(1, 0, 0, 1, 0, 0)"/><path d="M 989.900024 663.599976 H 1224.000031 V 670.699975 H 989.900024 V 663.599976 Z" class="st16" style="fill: rgb(208, 214, 216);" transform="matrix(1, 0, 0, 1, 0, 0)"/><path d="M 989.900024 686.5 H 1224.000031 V 693.6 H 989.900024 V 686.5 Z" class="st16" style="fill: rgb(208, 214, 216);" transform="matrix(1, 0, 0, 1, 0, 0)"/><path d="M 989.900024 709.5 H 1224.000031 V 716.6 H 989.900024 V 709.5 Z" class="st16" style="fill: rgb(208, 214, 216);" transform="matrix(1, 0, 0, 1, 0, 0)"/><path d="M 989.900024 732.400024 H 1224.000031 V 739.500024 H 989.900024 V 732.400024 Z" class="st16" style="fill: rgb(208, 214, 216);" transform="matrix(1, 0, 0, 1, 0, 0)"/><path d="M 989.900024 755.400024 H 1224.000031 V 762.500024 H 989.900024 V 755.400024 Z" class="st16" style="fill: rgb(208, 214, 216);" transform="matrix(1, 0, 0, 1, 0, 0)"/><path d="M 989.900024 778.299988 H 1224.000031 V 785.399988 H 989.900024 V 778.299988 Z" class="st16" style="fill: rgb(208, 214, 216);" transform="matrix(1, 0, 0, 1, 0, 0)"/><path d="M 827.299988 573.400024 H 968.999985 V 670.600021 H 827.299988 V 573.400024 Z" class="st16" style="fill: rgb(208, 214, 216);" transform="matrix(1, 0, 0, 1, 0, 0)"/><path d="M 827.299988 694.299988 H 968.999985 V 785.399986 H 827.299988 V 694.299988 Z" class="st16" style="fill: rgb(208, 214, 216);" transform="matrix(1, 0, 0, 1, 0, 0)"/><path class="st2" d="M1105,147l0-0.7l-35,0l-7.1-30.3c-0.7-3-0.7-6.1-0.1-9.1c0.7-3,2-5.8,3.9-8.2l15.4-19.7&#10;&#9;&#9;&#9;c0.2-0.3,0.4-0.6,0.6-0.9c0.2-0.4,0.4-0.7,0.7-1.1c0.9-1.7,1.3-3.4,1.3-5.1c0.1-10.6-15.9-19-36.4-19.1&#10;&#9;&#9;&#9;c-20.4-0.1-36.5,8.1-36.6,18.7c0,1.8,0.4,3.5,1.3,5.2c0.2,0.4,0.4,0.7,0.6,1.1c0.2,0.3,0.4,0.6,0.6,0.9l15.3,19.9&#10;&#9;&#9;&#9;c1.9,2.4,3.1,5.2,3.8,8.2c0.6,3,0.6,6.1-0.2,9.1l-7.5,30.4l-35.7,0l0,7.3h0.1l-0.3,56l20.3,0.1l0,0l0.5,0l4.7,0l17.2,0.1l29.5,0.2&#10;&#9;&#9;&#9;l17.2,0.1l25.5,0.1l0.3-63.2L1105,147z M1038.2,117.1c0.9-3.7,1-7.6,0.2-11.4c-0.8-3.8-2.4-7.3-4.7-10.3l-15.2-19.7&#10;&#9;&#9;&#9;c-0.1-0.2-0.3-0.4-0.4-0.6c-0.1-0.2-0.3-0.5-0.4-0.7c-0.5-0.9-0.7-1.8-0.7-2.7c0-6.5,12.9-13.6,31.4-13.5&#10;&#9;&#9;&#9;c18.4,0.1,31.2,7.4,31.2,13.9c0,0.9-0.2,1.8-0.7,2.7c-0.1,0.2-0.3,0.5-0.4,0.7c-0.1,0.2-0.3,0.4-0.4,0.6l-15.4,19.6&#10;&#9;&#9;&#9;c-2.4,3-4,6.5-4.8,10.3c-0.8,3.8-0.8,7.6,0.1,11.3l6.8,29.1l-33.6,0L1038.2,117.1z" style="opacity: 0.2;" transform="matrix(1, 0, 0, 1, 0, 0)"/><path d="M 976.2000122070312 146.39999389648438 L 975.9000244140625 209.60000610351562 L 1001.4000244140625 209.6999969482422 L 1018.5999755859375 209.8000030517578 L 1018.5999755859375 209.8000030517578 L 1018.5999755859375 209.8000030517578 L 1048.0999755859375 210 L 1048.0999755859375 210 L 1065.300048828125 210.10000610351562 L 1065.300048828125 210.10000610351562 L 1090.800048828125 210.1999969482422 L 1091.199951171875 147 Z" transform="matrix(1, 0, 0, 1, 0, 0)"/><path d="M 1091 153.6999969482422 L 976.0999755859375 153.60000610351562 L 976.0999755859375 146.3000030517578 L 1091 146.3000030517578 Z" class="st17" style="fill: rgb(220, 220, 220);" transform="matrix(1, 0, 0, 1, 0, 0)"/><path class="st9" d="M1001.6,209.7l-5.4,0l23-93.8c0.7-3,0.8-6,0.2-9.1c-0.6-3-1.9-5.8-3.8-8.2l-15.3-19.9&#10;&#9;&#9;&#9;c-0.2-0.3-0.4-0.6-0.6-0.9c-0.2-0.3-0.4-0.7-0.6-1.1c-0.9-1.7-1.3-3.4-1.3-5.2c0.1-10.6,16.1-18.8,36.6-18.7&#10;&#9;&#9;&#9;c20.4,0.1,36.4,8.5,36.4,19.1c0,1.7-0.5,3.5-1.3,5.1c-0.2,0.4-0.4,0.8-0.7,1.1c-0.2,0.3-0.4,0.6-0.6,0.9l-15.4,19.7&#10;&#9;&#9;&#9;c-1.9,2.4-3.2,5.2-3.9,8.2c-0.7,3-0.6,6.1,0.1,9.1l21.9,94.1l-5.3,0l-21.6-92.9c-0.9-3.8-0.9-7.6-0.1-11.3&#10;&#9;&#9;&#9;c0.8-3.8,2.5-7.2,4.8-10.3l15.4-19.6c0.1-0.2,0.3-0.4,0.4-0.6c0.2-0.3,0.3-0.5,0.4-0.7c0.5-0.9,0.7-1.8,0.7-2.7&#10;&#9;&#9;&#9;c0-6.5-12.8-13.8-31.2-13.9c-18.4-0.1-31.3,7-31.4,13.5c0,0.9,0.2,1.8,0.7,2.7c0.1,0.2,0.2,0.5,0.4,0.7c0.1,0.2,0.3,0.4,0.4,0.6&#10;&#9;&#9;&#9;l15.2,19.7c2.4,3.1,3.9,6.5,4.7,10.3c0.8,3.8,0.7,7.6-0.2,11.4L1001.6,209.7z" style="fill: rgb(255, 255, 255);" transform="matrix(1, 0, 0, 1, 0, 0)"/>
</svg>